<svg xmlns="http://www.w3.org/2000/svg" width="1200" height="900" viewBox="0 0 1200 900"><defs><linearGradient id="g" x1="0" y1="0" x2="1" y2="1"><stop stop-color="#6ee4ff"/><stop offset="1" stop-color="#8e8cff"/></linearGradient><filter id="glow"><feGaussianBlur stdDeviation="12" result="b"/><feMerge><feMergeNode in="b"/><feMergeNode in="SourceGraphic"/></feMerge></filter></defs><rect width="100%" height="100%" fill="#050b10"/><g opacity=".13" stroke="#6ee4ff"><path d="M0 60H1200"/><path d="M0 120H1200"/><path d="M0 180H1200"/><path d="M0 240H1200"/><path d="M0 300H1200"/><path d="M0 360H1200"/><path d="M0 420H1200"/><path d="M0 480H1200"/><path d="M0 540H1200"/><path d="M0 600H1200"/><path d="M0 660H1200"/><path d="M0 720H1200"/><path d="M0 780H1200"/><path d="M0 840H1200"/><path d="M60 0V900"/><path d="M120 0V900"/><path d="M180 0V900"/><path d="M240 0V900"/><path d="M300 0V900"/><path d="M360 0V900"/><path d="M420 0V900"/><path d="M480 0V900"/><path d="M540 0V900"/><path d="M600 0V900"/><path d="M660 0V900"/><path d="M720 0V900"/><path d="M780 0V900"/><path d="M840 0V900"/><path d="M900 0V900"/><path d="M960 0V900"/><path d="M1020 0V900"/><path d="M1080 0V900"/><path d="M1140 0V900"/></g><g transform="translate(160 150)"><path d="M0 510H880" stroke="#7adfff" opacity=".35"/><rect x="80" y="90" width="720" height="420" rx="22" fill="#07121c" stroke="#426476"/><rect x="160" y="160" width="560" height="260" rx="18" fill="url(#g)" opacity=".09"/><circle cx="440" cy="290" r="105" fill="none" stroke="#7be4ff" stroke-width="6"/><circle cx="440" cy="290" r="175" fill="none" stroke="#7be4ff" stroke-dasharray="10 16" opacity=".3"/><path d="M205 390Q440 180 675 390" fill="none" stroke="#d3f7ff" stroke-width="12" opacity=".75"/></g></svg>