<svg xmlns="http://www.w3.org/2000/svg" width="1200" height="900" viewBox="0 0 1200 900"><defs><linearGradient id="g" x1="0" y1="0" x2="1" y2="1"><stop stop-color="#6ee4ff"/><stop offset="1" stop-color="#8e8cff"/></linearGradient><filter id="glow"><feGaussianBlur stdDeviation="12" result="b"/><feMerge><feMergeNode in="b"/><feMergeNode in="SourceGraphic"/></feMerge></filter></defs><rect width="100%" height="100%" fill="#050b10"/><g opacity=".13" stroke="#6ee4ff"><path d="M0 60H1200"/><path d="M0 120H1200"/><path d="M0 180H1200"/><path d="M0 240H1200"/><path d="M0 300H1200"/><path d="M0 360H1200"/><path d="M0 420H1200"/><path d="M0 480H1200"/><path d="M0 540H1200"/><path d="M0 600H1200"/><path d="M0 660H1200"/><path d="M0 720H1200"/><path d="M0 780H1200"/><path d="M0 840H1200"/><path d="M60 0V900"/><path d="M120 0V900"/><path d="M180 0V900"/><path d="M240 0V900"/><path d="M300 0V900"/><path d="M360 0V900"/><path d="M420 0V900"/><path d="M480 0V900"/><path d="M540 0V900"/><path d="M600 0V900"/><path d="M660 0V900"/><path d="M720 0V900"/><path d="M780 0V900"/><path d="M840 0V900"/><path d="M900 0V900"/><path d="M960 0V900"/><path d="M1020 0V900"/><path d="M1080 0V900"/><path d="M1140 0V900"/></g><g transform="translate(225 165)"><rect width="750" height="570" rx="70" fill="#07131d" stroke="#6de2ff" stroke-width="3"/><g><circle cx="90" cy="90" r="33" fill="#0f2633" stroke="url(#g)" stroke-width="5"/><circle cx="90" cy="90" r="9" fill="#c7f5ff"/><circle cx="205" cy="90" r="33" fill="#0f2633" stroke="url(#g)" stroke-width="5"/><circle cx="205" cy="90" r="9" fill="#c7f5ff"/><circle cx="320" cy="90" r="33" fill="#0f2633" stroke="url(#g)" stroke-width="5"/><circle cx="320" cy="90" r="9" fill="#c7f5ff"/><circle cx="435" cy="90" r="33" fill="#0f2633" stroke="url(#g)" stroke-width="5"/><circle cx="435" cy="90" r="9" fill="#c7f5ff"/><circle cx="550" cy="90" r="33" fill="#0f2633" stroke="url(#g)" stroke-width="5"/><circle cx="550" cy="90" r="9" fill="#c7f5ff"/><circle cx="665" cy="90" r="33" fill="#0f2633" stroke="url(#g)" stroke-width="5"/><circle cx="665" cy="90" r="9" fill="#c7f5ff"/><circle cx="90" cy="210" r="33" fill="#0f2633" stroke="url(#g)" stroke-width="5"/><circle cx="90" cy="210" r="9" fill="#c7f5ff"/><circle cx="205" cy="210" r="33" fill="#0f2633" stroke="url(#g)" stroke-width="5"/><circle cx="205" cy="210" r="9" fill="#c7f5ff"/><circle cx="320" cy="210" r="33" fill="#0f2633" stroke="url(#g)" stroke-width="5"/><circle cx="320" cy="210" r="9" fill="#c7f5ff"/><circle cx="435" cy="210" r="33" fill="#0f2633" stroke="url(#g)" stroke-width="5"/><circle cx="435" cy="210" r="9" fill="#c7f5ff"/><circle cx="550" cy="210" r="33" fill="#0f2633" stroke="url(#g)" stroke-width="5"/><circle cx="550" cy="210" r="9" fill="#c7f5ff"/><circle cx="665" cy="210" r="33" fill="#0f2633" stroke="url(#g)" stroke-width="5"/><circle cx="665" cy="210" r="9" fill="#c7f5ff"/><circle cx="90" cy="330" r="33" fill="#0f2633" stroke="url(#g)" stroke-width="5"/><circle cx="90" cy="330" r="9" fill="#c7f5ff"/><circle cx="205" cy="330" r="33" fill="#0f2633" stroke="url(#g)" stroke-width="5"/><circle cx="205" cy="330" r="9" fill="#c7f5ff"/><circle cx="320" cy="330" r="33" fill="#0f2633" stroke="url(#g)" stroke-width="5"/><circle cx="320" cy="330" r="9" fill="#c7f5ff"/><circle cx="435" cy="330" r="33" fill="#0f2633" stroke="url(#g)" stroke-width="5"/><circle cx="435" cy="330" r="9" fill="#c7f5ff"/><circle cx="550" cy="330" r="33" fill="#0f2633" stroke="url(#g)" stroke-width="5"/><circle cx="550" cy="330" r="9" fill="#c7f5ff"/><circle cx="665" cy="330" r="33" fill="#0f2633" stroke="url(#g)" stroke-width="5"/><circle cx="665" cy="330" r="9" fill="#c7f5ff"/><circle cx="90" cy="450" r="33" fill="#0f2633" stroke="url(#g)" stroke-width="5"/><circle cx="90" cy="450" r="9" fill="#c7f5ff"/><circle cx="205" cy="450" r="33" fill="#0f2633" stroke="url(#g)" stroke-width="5"/><circle cx="205" cy="450" r="9" fill="#c7f5ff"/><circle cx="320" cy="450" r="33" fill="#0f2633" stroke="url(#g)" stroke-width="5"/><circle cx="320" cy="450" r="9" fill="#c7f5ff"/><circle cx="435" cy="450" r="33" fill="#0f2633" stroke="url(#g)" stroke-width="5"/><circle cx="435" cy="450" r="9" fill="#c7f5ff"/><circle cx="550" cy="450" r="33" fill="#0f2633" stroke="url(#g)" stroke-width="5"/><circle cx="550" cy="450" r="9" fill="#c7f5ff"/><circle cx="665" cy="450" r="33" fill="#0f2633" stroke="url(#g)" stroke-width="5"/><circle cx="665" cy="450" r="9" fill="#c7f5ff"/></g></g></svg>